<mxfile host="app.diagrams.net" agent="Mozilla/5.0 (Macintosh; Intel Mac OS X 10_15_7) AppleWebKit/537.36 (KHTML, like Gecko) Chrome/140.0.0.0 Safari/537.36" version="28.2.5">
  <diagram name="Page-1" id="WqpTFbcX6_tF1GPSrYGj">
    <mxGraphModel dx="1216" dy="700" grid="1" gridSize="10" guides="1" tooltips="1" connect="1" arrows="1" fold="1" page="1" pageScale="1" pageWidth="827" pageHeight="1169" math="0" shadow="0">
      <root>
        <mxCell id="0" />
        <mxCell id="1" parent="0" />
        <mxCell id="G9_Hxtk4buS6C7SL4A0N-8" value="" style="edgeStyle=orthogonalEdgeStyle;rounded=0;orthogonalLoop=1;jettySize=auto;html=1;" edge="1" parent="1" source="G9_Hxtk4buS6C7SL4A0N-4" target="G9_Hxtk4buS6C7SL4A0N-7">
          <mxGeometry relative="1" as="geometry">
            <Array as="points">
              <mxPoint x="414" y="140" />
              <mxPoint x="340" y="140" />
            </Array>
          </mxGeometry>
        </mxCell>
        <mxCell id="G9_Hxtk4buS6C7SL4A0N-9" style="edgeStyle=orthogonalEdgeStyle;rounded=0;orthogonalLoop=1;jettySize=auto;html=1;exitX=0.5;exitY=1;exitDx=0;exitDy=0;entryX=0.5;entryY=0;entryDx=0;entryDy=0;" edge="1" parent="1" source="G9_Hxtk4buS6C7SL4A0N-4" target="G9_Hxtk4buS6C7SL4A0N-5">
          <mxGeometry relative="1" as="geometry">
            <mxPoint x="239.9999999999999" y="170" as="targetPoint" />
            <Array as="points">
              <mxPoint x="414" y="140" />
              <mxPoint x="140" y="140" />
            </Array>
          </mxGeometry>
        </mxCell>
        <mxCell id="G9_Hxtk4buS6C7SL4A0N-12" style="edgeStyle=orthogonalEdgeStyle;rounded=0;orthogonalLoop=1;jettySize=auto;html=1;exitX=0.5;exitY=1;exitDx=0;exitDy=0;entryX=0.5;entryY=0;entryDx=0;entryDy=0;" edge="1" parent="1" source="G9_Hxtk4buS6C7SL4A0N-4" target="G9_Hxtk4buS6C7SL4A0N-10">
          <mxGeometry relative="1" as="geometry">
            <Array as="points">
              <mxPoint x="414" y="140" />
              <mxPoint x="534" y="140" />
            </Array>
          </mxGeometry>
        </mxCell>
        <mxCell id="G9_Hxtk4buS6C7SL4A0N-13" style="edgeStyle=orthogonalEdgeStyle;rounded=0;orthogonalLoop=1;jettySize=auto;html=1;exitX=0.5;exitY=1;exitDx=0;exitDy=0;entryX=0.5;entryY=0;entryDx=0;entryDy=0;" edge="1" parent="1" source="G9_Hxtk4buS6C7SL4A0N-4" target="G9_Hxtk4buS6C7SL4A0N-11">
          <mxGeometry relative="1" as="geometry">
            <Array as="points">
              <mxPoint x="414" y="140" />
              <mxPoint x="700" y="140" />
            </Array>
          </mxGeometry>
        </mxCell>
        <mxCell id="G9_Hxtk4buS6C7SL4A0N-4" value="Home" style="rounded=0;whiteSpace=wrap;html=1;" vertex="1" parent="1">
          <mxGeometry x="354" y="40" width="120" height="60" as="geometry" />
        </mxCell>
        <mxCell id="G9_Hxtk4buS6C7SL4A0N-15" value="" style="edgeStyle=orthogonalEdgeStyle;rounded=0;orthogonalLoop=1;jettySize=auto;html=1;" edge="1" parent="1" source="G9_Hxtk4buS6C7SL4A0N-5" target="G9_Hxtk4buS6C7SL4A0N-14">
          <mxGeometry relative="1" as="geometry" />
        </mxCell>
        <mxCell id="G9_Hxtk4buS6C7SL4A0N-5" value="Products" style="rounded=0;whiteSpace=wrap;html=1;" vertex="1" parent="1">
          <mxGeometry x="80" y="190" width="120" height="60" as="geometry" />
        </mxCell>
        <mxCell id="G9_Hxtk4buS6C7SL4A0N-17" value="" style="edgeStyle=orthogonalEdgeStyle;rounded=0;orthogonalLoop=1;jettySize=auto;html=1;" edge="1" parent="1" source="G9_Hxtk4buS6C7SL4A0N-7" target="G9_Hxtk4buS6C7SL4A0N-16">
          <mxGeometry relative="1" as="geometry" />
        </mxCell>
        <mxCell id="G9_Hxtk4buS6C7SL4A0N-7" value="About" style="rounded=0;whiteSpace=wrap;html=1;" vertex="1" parent="1">
          <mxGeometry x="280" y="190" width="120" height="60" as="geometry" />
        </mxCell>
        <mxCell id="G9_Hxtk4buS6C7SL4A0N-10" value="About" style="rounded=0;whiteSpace=wrap;html=1;" vertex="1" parent="1">
          <mxGeometry x="474" y="190" width="120" height="60" as="geometry" />
        </mxCell>
        <mxCell id="G9_Hxtk4buS6C7SL4A0N-11" value="About" style="rounded=0;whiteSpace=wrap;html=1;" vertex="1" parent="1">
          <mxGeometry x="640" y="190" width="120" height="60" as="geometry" />
        </mxCell>
        <mxCell id="G9_Hxtk4buS6C7SL4A0N-14" value="Product" style="rounded=0;whiteSpace=wrap;html=1;" vertex="1" parent="1">
          <mxGeometry x="80" y="330" width="120" height="60" as="geometry" />
        </mxCell>
        <mxCell id="G9_Hxtk4buS6C7SL4A0N-16" value="Crew" style="rounded=0;whiteSpace=wrap;html=1;" vertex="1" parent="1">
          <mxGeometry x="280" y="330" width="120" height="60" as="geometry" />
        </mxCell>
      </root>
    </mxGraphModel>
  </diagram>
</mxfile>
